<svg width="194" height="89" viewBox="0 0 194 89" fill="none" xmlns="http://www.w3.org/2000/svg">
<path d="M42.1013 88.08C37.1213 88.08 32.5013 87.27 28.2413 85.65C24.0413 84.03 20.3813 81.75 17.2612 78.81C14.2013 75.87 11.8013 72.42 10.0613 68.46C8.38125 64.5 7.54125 60.18 7.54125 55.5C7.54125 50.82 8.38125 46.5 10.0613 42.54C11.8013 38.58 14.2313 35.13 17.3513 32.19C20.4713 29.25 24.1313 26.97 28.3313 25.35C32.5313 23.73 37.0913 22.92 42.0113 22.92C46.9913 22.92 51.5512 23.73 55.6913 25.35C59.8913 26.97 63.5213 29.25 66.5813 32.19C69.7013 35.13 72.1313 38.58 73.8713 42.54C75.6113 46.44 76.4813 50.76 76.4813 55.5C76.4813 60.18 75.6113 64.53 73.8713 68.55C72.1313 72.51 69.7013 75.96 66.5813 78.9C63.5213 81.78 59.8913 84.03 55.6913 85.65C51.5512 87.27 47.0212 88.08 42.1013 88.08ZM42.0113 75.66C44.8313 75.66 47.4113 75.18 49.7513 74.22C52.1513 73.26 54.2513 71.88 56.0513 70.08C57.8513 68.28 59.2313 66.15 60.1913 63.69C61.2113 61.23 61.7213 58.5 61.7213 55.5C61.7213 52.5 61.2113 49.77 60.1913 47.31C59.2313 44.85 57.8513 42.72 56.0513 40.92C54.3113 39.12 52.2413 37.74 49.8413 36.78C47.4413 35.82 44.8313 35.34 42.0113 35.34C39.1913 35.34 36.5813 35.82 34.1813 36.78C31.8413 37.74 29.7713 39.12 27.9713 40.92C26.1713 42.72 24.7613 44.85 23.7413 47.31C22.7813 49.77 22.3013 52.5 22.3013 55.5C22.3013 58.44 22.7813 61.17 23.7413 63.69C24.7613 66.15 26.1413 68.28 27.8813 70.08C29.6813 71.88 31.7813 73.26 34.1813 74.22C36.5813 75.18 39.1913 75.66 42.0113 75.66Z" fill="#C5B27D"/>
<path d="M82.3262 77.7632V48.0832H88.5662V77.7632H82.3262ZM94.3575 77.7632V56.2432H100.597V77.7632H94.3575ZM97.4775 53.2432C96.3308 53.2432 95.3975 52.9098 94.6775 52.2432C93.9575 51.5765 93.5975 50.7498 93.5975 49.7632C93.5975 48.7765 93.9575 47.9498 94.6775 47.2832C95.3975 46.6165 96.3308 46.2832 97.4775 46.2832C98.6241 46.2832 99.5575 46.6032 100.277 47.2432C100.997 47.8565 101.357 48.6565 101.357 49.6432C101.357 50.6832 100.997 51.5498 100.277 52.2432C99.5841 52.9098 98.6508 53.2432 97.4775 53.2432ZM133.949 55.9232C135.655 55.9232 137.162 56.2698 138.469 56.9632C139.802 57.6298 140.842 58.6698 141.589 60.0832C142.362 61.4698 142.749 63.2565 142.749 65.4432V77.7632H136.509V66.4032C136.509 64.6698 136.149 63.3898 135.429 62.5632C134.709 61.7365 133.695 61.3232 132.389 61.3232C131.482 61.3232 130.669 61.5365 129.949 61.9632C129.229 62.3632 128.669 62.9765 128.269 63.8032C127.869 64.6298 127.669 65.6832 127.669 66.9632V77.7632H121.429V66.4032C121.429 64.6698 121.069 63.3898 120.349 62.5632C119.655 61.7365 118.655 61.3232 117.349 61.3232C116.442 61.3232 115.629 61.5365 114.909 61.9632C114.189 62.3632 113.629 62.9765 113.229 63.8032C112.829 64.6298 112.629 65.6832 112.629 66.9632V77.7632H106.389V56.2432H112.349V62.1232L111.229 60.4032C111.975 58.9365 113.029 57.8298 114.389 57.0832C115.775 56.3098 117.349 55.9232 119.109 55.9232C121.082 55.9232 122.802 56.4298 124.269 57.4432C125.762 58.4298 126.749 59.9498 127.229 62.0032L125.029 61.4032C125.749 59.7232 126.895 58.3898 128.469 57.4032C130.069 56.4165 131.895 55.9232 133.949 55.9232ZM161.062 78.0832C159.249 78.0832 157.662 77.6832 156.302 76.8832C154.942 76.0832 153.875 74.8699 153.102 73.2432C152.355 71.5898 151.982 69.5098 151.982 67.0032C151.982 64.4698 152.342 62.3898 153.062 60.7632C153.782 59.1365 154.822 57.9232 156.182 57.1232C157.542 56.3232 159.169 55.9232 161.062 55.9232C163.089 55.9232 164.902 56.3898 166.502 57.3232C168.129 58.2298 169.409 59.5098 170.342 61.1632C171.302 62.8165 171.782 64.7632 171.782 67.0032C171.782 69.2698 171.302 71.2298 170.342 72.8832C169.409 74.5365 168.129 75.8165 166.502 76.7232C164.902 77.6299 163.089 78.0832 161.062 78.0832ZM148.342 85.5232V56.2432H154.302V60.6432L154.182 67.0432L154.582 73.4032V85.5232H148.342ZM159.982 72.9632C161.022 72.9632 161.942 72.7232 162.742 72.2432C163.569 71.7632 164.222 71.0832 164.702 70.2032C165.209 69.2965 165.462 68.2298 165.462 67.0032C165.462 65.7498 165.209 64.6832 164.702 63.8032C164.222 62.9232 163.569 62.2432 162.742 61.7632C161.942 61.2832 161.022 61.0432 159.982 61.0432C158.942 61.0432 158.009 61.2832 157.182 61.7632C156.355 62.2432 155.702 62.9232 155.222 63.8032C154.742 64.6832 154.502 65.7498 154.502 67.0032C154.502 68.2298 154.742 69.2965 155.222 70.2032C155.702 71.0832 156.355 71.7632 157.182 72.2432C158.009 72.7232 158.942 72.9632 159.982 72.9632Z" fill="white"/>
</svg>
